<svg width="42" height="55" viewBox="0 0 42 55" fill="none" xmlns="http://www.w3.org/2000/svg">
<mask id="path-1-inside-1_113_1059" fill="white">
<path fill-rule="evenodd" clip-rule="evenodd" d="M14.0187 2.57464C15.7828 0.788243 18.2364 0 20.9947 0C23.7529 0 26.2065 0.788243 27.9706 2.57464C29.7305 4.36104 30.5131 6.84572 30.5131 9.63884C30.5131 12.432 29.7305 14.9124 27.9749 16.6988C26.2108 18.4852 23.7571 19.2777 20.9989 19.2777C18.2406 19.2777 15.787 18.4852 14.0229 16.6988C12.2631 14.9166 11.4804 12.432 11.4804 9.63884C11.4804 6.84572 12.2631 4.36104 14.0229 2.57464M21.0031 28.2268C18.8583 26.1705 16.1254 24.0157 13.1937 22.889C11.5439 22.255 9.78402 21.9294 8.0157 22.1651C6.23469 22.405 4.50868 23.2103 2.93496 24.7268C0.27825 27.2801 -0.390158 30.4887 0.197872 33.7574C0.777441 36.9789 2.57537 40.2775 4.86826 43.2506C7.16982 46.2036 9.85672 48.8265 12.8553 51.0473C15.6516 53.1036 18.5156 54.603 20.8297 54.9885C20.942 55.0038 21.0558 55.0038 21.1681 54.9885C23.4821 54.603 26.3504 53.1036 29.1425 51.0473C32.1426 48.8268 34.8309 46.2039 37.1337 43.2506C39.4266 40.2775 41.2203 36.9789 41.7999 33.7574C42.3922 30.4887 41.7238 27.2801 39.0671 24.7268C37.4891 23.2103 35.7673 22.405 33.9821 22.1651C32.218 21.9294 30.4581 22.2507 28.804 22.8933C25.8766 24.0157 23.1437 26.1705 21.0031 28.2268Z"/>
</mask>
<path d="M27.9706 2.57464L30.464 0.118358L30.461 0.115368L27.9706 2.57464ZM27.9749 16.6988L30.4652 19.158L30.4711 19.152L27.9749 16.6988ZM14.0229 16.6988L11.5325 19.158L14.0229 16.6988ZM21.0031 28.2268L18.5809 30.7533L21.0055 33.0778L23.4278 30.7509L21.0031 28.2268ZM13.1937 22.889L14.4493 19.622L14.4492 19.622L13.1937 22.889ZM8.0157 22.1651L7.55344 18.6957L7.54848 18.6964L8.0157 22.1651ZM2.93496 24.7268L5.3602 27.2504L5.3636 27.2471L2.93496 24.7268ZM0.197872 33.7574L-3.24683 34.3771L-3.24683 34.3771L0.197872 33.7574ZM4.86826 43.2506L2.09676 45.388L2.1022 45.3951L2.10768 45.4021L4.86826 43.2506ZM12.8553 51.0473L10.7722 53.8599L10.7818 53.867L12.8553 51.0473ZM20.8297 54.9885L20.2544 58.4409L20.3057 58.4495L20.3572 58.4565L20.8297 54.9885ZM21.1681 54.9885L21.6406 58.4565L21.6921 58.4495L21.7433 58.4409L21.1681 54.9885ZM29.1425 51.0473L31.218 53.8655L31.2247 53.8606L29.1425 51.0473ZM37.1337 43.2506L39.8938 45.4027L39.8996 45.3954L39.9053 45.388L37.1337 43.2506ZM41.7999 33.7574L38.356 33.1333L38.3552 33.1376L41.7999 33.7574ZM39.0671 24.7268L36.6418 27.2504L36.6418 27.2504L39.0671 24.7268ZM33.9821 22.1651L34.4482 18.6962L34.4454 18.6959L33.9821 22.1651ZM28.804 22.8933L30.057 26.1614L30.0642 26.1586L30.0714 26.1558L28.804 22.8933ZM14.0187 2.57464L16.5091 5.03392C17.4384 4.09284 18.8858 3.5 20.9947 3.5V0V-3.5C17.587 -3.5 14.1272 -2.51635 11.5283 0.115368L14.0187 2.57464ZM20.9947 0V3.5C23.1035 3.5 24.5509 4.09284 25.4803 5.03392L27.9706 2.57464L30.461 0.115368C27.8622 -2.51635 24.4023 -3.5 20.9947 -3.5V0ZM27.9706 2.57464L25.4773 5.03092C26.414 5.98179 27.0131 7.47551 27.0131 9.63884H30.5131H34.0131C34.0131 6.21593 33.0469 2.74029 30.464 0.118359L27.9706 2.57464ZM30.5131 9.63884H27.0131C27.0131 11.8008 26.4147 13.293 25.4786 14.2455L27.9749 16.6988L30.4711 19.152C33.0463 16.5317 34.0131 13.0631 34.0131 9.63884H30.5131ZM27.9749 16.6988L25.4845 14.2395C24.5527 15.1831 23.1031 15.7777 20.9989 15.7777V19.2777V22.7777C24.4111 22.7777 27.8689 21.7872 30.4652 19.158L27.9749 16.6988ZM20.9989 19.2777V15.7777C18.8946 15.7777 17.4451 15.1831 16.5133 14.2395L14.0229 16.6988L11.5325 19.158C14.1289 21.7872 17.5867 22.7777 20.9989 22.7777V19.2777ZM14.0229 16.6988L16.5133 14.2395C15.5801 13.2945 14.9804 11.8034 14.9804 9.63884H11.4804H7.98042C7.98042 13.0605 8.94605 16.5388 11.5325 19.158L14.0229 16.6988ZM11.4804 9.63884H14.9804C14.9804 7.47551 15.5795 5.98179 16.5162 5.03092L14.0229 2.57464L11.5296 0.118359C8.94661 2.74029 7.98042 6.21593 7.98042 9.63884H11.4804ZM21.0031 28.2268L23.4253 25.7003C21.1475 23.5166 18.0172 20.9932 14.4493 19.622L13.1937 22.889L11.9382 26.1561C14.2336 27.0382 16.5691 28.8245 18.5809 30.7533L21.0031 28.2268ZM13.1937 22.889L14.4492 19.622C12.4103 18.8384 10.0493 18.3632 7.55344 18.6957L8.0157 22.1651L8.47797 25.6344C9.51878 25.4957 10.6775 25.6716 11.9383 26.1561L13.1937 22.889ZM8.0157 22.1651L7.54848 18.6964C4.98625 19.0415 2.58406 20.2044 0.506317 22.2066L2.93496 24.7268L5.3636 27.2471C6.4333 26.2163 7.48313 25.7684 8.48293 25.6337L8.0157 22.1651ZM2.93496 24.7268L0.509723 22.2033C-3.146 25.7166 -4.00101 30.1849 -3.24683 34.3771L0.197872 33.7574L3.64257 33.1377C3.22069 30.7926 3.7025 28.8435 5.36019 27.2504L2.93496 24.7268ZM0.197872 33.7574L-3.24683 34.3771C-2.52922 38.3659 -0.374937 42.1831 2.09676 45.388L4.86826 43.2506L7.63977 41.1131C5.52568 38.3719 4.0841 35.5919 3.64257 33.1376L0.197872 33.7574ZM4.86826 43.2506L2.10768 45.4021C4.60343 48.6043 7.51804 51.4498 10.7722 53.8599L12.8553 51.0473L14.9384 48.2347C12.1954 46.2032 9.73621 43.8029 7.62885 41.099L4.86826 43.2506ZM12.8553 51.0473L10.7818 53.867C13.7325 56.0368 17.1304 57.9204 20.2544 58.4409L20.8297 54.9885L21.4049 51.5361C19.9008 51.2855 17.5707 50.1704 14.9288 48.2276L12.8553 51.0473ZM20.8297 54.9885L20.3572 58.4565C20.783 58.5145 21.2147 58.5145 21.6406 58.4565L21.1681 54.9885L20.6956 51.5206C20.8969 51.4931 21.1009 51.4931 21.3021 51.5206L20.8297 54.9885ZM21.1681 54.9885L21.7433 58.4409C24.8665 57.9206 28.2683 56.0378 31.218 53.8655L29.1425 51.0473L27.0669 48.2291C24.4324 50.1694 22.0978 51.2854 20.5929 51.5361L21.1681 54.9885ZM29.1425 51.0473L31.2247 53.8606C34.4805 51.4508 37.3967 48.6053 39.8938 45.4027L37.1337 43.2506L34.3736 41.0984C32.2651 43.8025 29.8046 46.2028 27.0602 48.2341L29.1425 51.0473ZM37.1337 43.2506L39.9053 45.388C42.3788 42.1807 44.5274 38.3639 45.2446 34.3771L41.7999 33.7574L38.3552 33.1376C37.9133 35.5939 36.4745 38.3743 34.3622 41.1131L37.1337 43.2506ZM41.7999 33.7574L45.2438 34.3814C46.004 30.1862 45.1481 25.7167 41.4923 22.2033L39.0671 24.7268L36.6418 27.2504C38.2994 28.8434 38.7804 30.7913 38.356 33.1333L41.7999 33.7574ZM39.0671 24.7268L41.4923 22.2033C39.4136 20.2055 37.0174 19.0415 34.4482 18.6962L33.9821 22.1651L33.5159 25.6339C34.5172 25.7684 35.5646 26.2151 36.6418 27.2504L39.0671 24.7268ZM33.9821 22.1651L34.4454 18.6959C31.956 18.3634 29.5921 18.8324 27.5366 19.6309L28.804 22.8933L30.0714 26.1558C31.3242 25.6691 32.4799 25.4955 33.5187 25.6342L33.9821 22.1651ZM28.804 22.8933L27.5511 19.6253C23.985 20.9925 20.8534 23.5174 18.5784 25.7027L21.0031 28.2268L23.4278 30.7509C25.434 28.8237 27.7681 27.0389 30.057 26.1614L28.804 22.8933Z" fill="#3A63AF" mask="url(#path-1-inside-1_113_1059)"/>
</svg>
