<svg width="24" height="24" viewBox="0 0 24 24" fill="none" xmlns="http://www.w3.org/2000/svg">
<path d="M6.256 16.6667V18.6667C6.256 18.856 6.32 19.0142 6.448 19.1413C6.576 19.2684 6.73467 19.3324 6.924 19.3333C7.11333 19.3342 7.27156 19.2702 7.39867 19.1413C7.52578 19.0124 7.58933 18.8542 7.58933 18.6667V16.6667H9.58933C9.77867 16.6667 9.93733 16.6027 10.0653 16.4747C10.1933 16.3467 10.2569 16.188 10.256 15.9987C10.2551 15.8093 10.1916 15.6511 10.0653 15.524C9.93911 15.3969 9.78045 15.3333 9.58933 15.3333H7.58933V13.3333C7.58933 13.144 7.52533 12.9858 7.39733 12.8587C7.27022 12.7307 7.112 12.6667 6.92267 12.6667C6.73333 12.6667 6.57511 12.7307 6.448 12.8587C6.32089 12.9867 6.25689 13.1449 6.256 13.3333V15.3333H4.256C4.06756 15.3333 3.90933 15.3973 3.78133 15.5253C3.65333 15.6533 3.58933 15.812 3.58933 16.0013C3.58933 16.1907 3.65333 16.3489 3.78133 16.476C3.90933 16.6031 4.06756 16.6667 4.256 16.6667H6.256ZM13.9227 15.0773H20.0773C20.2471 15.0773 20.388 15.0218 20.5 14.9107C20.6111 14.7996 20.6667 14.6587 20.6667 14.488C20.6667 14.3173 20.6111 14.1764 20.5 14.0653C20.3889 13.9542 20.248 13.8982 20.0773 13.8973H13.9227C13.7529 13.8973 13.612 13.9529 13.5 14.064C13.3889 14.1751 13.3333 14.3156 13.3333 14.4853C13.3333 14.6551 13.3889 14.7964 13.5 14.9093C13.6111 15.0222 13.752 15.0782 13.9227 15.0773ZM13.9227 18.256H17.4107C17.5804 18.256 17.7213 18.2004 17.8333 18.0893C17.9444 17.9782 18 17.8378 18 17.668C18 17.4973 17.9444 17.3564 17.8333 17.2453C17.7213 17.1333 17.5804 17.0773 17.4107 17.0773H13.9227C13.7529 17.0773 13.612 17.1329 13.5 17.244C13.3889 17.3551 13.3333 17.4956 13.3333 17.6653C13.3333 17.836 13.3889 17.9769 13.5 18.088C13.612 18.2 13.7529 18.256 13.9227 18.256ZM2.15467 24C1.54044 24 1.028 23.7947 0.617333 23.384C0.206667 22.9733 0.000888889 22.4609 0 21.8467V8.82C0 8.20667 0.205778 7.69467 0.617333 7.284C1.02889 6.87333 1.54089 6.66756 2.15333 6.66667H9.33333V1.33333C9.33333 0.966222 9.464 0.652444 9.72533 0.392C9.98667 0.131555 10.3004 0.000888889 10.6667 0H13.3333C13.7004 0 14.0142 0.130667 14.2747 0.392C14.5351 0.653333 14.6658 0.967111 14.6667 1.33333V6.66667H21.8467C22.46 6.66667 22.972 6.87244 23.3827 7.284C23.7933 7.69556 23.9991 8.208 24 8.82133V21.8467C24 22.46 23.7942 22.9724 23.3827 23.384C22.9711 23.7956 22.4591 24.0009 21.8467 24H2.15467ZM2.15467 22.6667H21.8467C22.0858 22.6667 22.2822 22.5898 22.436 22.436C22.5898 22.2822 22.6667 22.0858 22.6667 21.8467V8.82C22.6667 8.58089 22.5898 8.38444 22.436 8.23067C22.2822 8.07689 22.0858 8 21.8467 8H14.6667V9.02667C14.6667 9.38311 14.5338 9.69422 14.268 9.96C14.0022 10.2258 13.6907 10.3591 13.3333 10.36H10.6667C10.3093 10.36 9.99778 10.2267 9.732 9.96C9.46622 9.69333 9.33333 9.38222 9.33333 9.02667V8H2.15467C1.91467 8 1.71778 8.07689 1.564 8.23067C1.41022 8.38444 1.33333 8.58133 1.33333 8.82133V21.8467C1.33333 22.0858 1.41022 22.2822 1.564 22.436C1.71778 22.5898 1.91467 22.6667 2.15467 22.6667ZM10.6667 9.02667H13.3333V1.33333H10.6667V9.02667Z" fill="#3A63AF"/>
</svg>
