<svg width="24" height="24" viewBox="0 0 24 24" fill="none" xmlns="http://www.w3.org/2000/svg">
<path d="M8.21973 0.75H15.7393C15.9132 0.75 16.0078 0.799205 16.084 0.875977C16.1677 0.961101 16.2119 1.05631 16.2119 1.21191V7.78809H22.7881C22.9428 7.7881 23.036 7.83251 23.1201 7.91699C23.206 8.00327 23.25 8.09748 23.25 8.25V15.7676C23.25 15.9407 23.2012 16.0353 23.125 16.1113C23.0396 16.1956 22.9442 16.2402 22.7881 16.2402H16.2119V22.7881C16.2119 22.9428 16.1675 23.036 16.083 23.1201C15.9967 23.206 15.9025 23.25 15.75 23.25H8.23242C8.05893 23.25 7.9638 23.2014 7.8877 23.125H7.88867C7.80441 23.0396 7.75978 22.9442 7.75977 22.7881V16.2402H1.21191C1.0578 16.2402 0.962751 16.1967 0.876953 16.1113C0.792992 16.0277 0.749552 15.9344 0.75 15.7803V8.26074C0.75 8.08681 0.799204 7.99222 0.875977 7.91602C0.959442 7.83327 1.05412 7.7881 1.21191 7.78809H7.75977V1.21191C7.75978 1.0578 7.80325 0.96275 7.88867 0.876953C7.97227 0.792992 8.06563 0.749552 8.21973 0.75Z" stroke="#3A63AF" stroke-width="1.5"/>
</svg>
