<svg width="22" height="22" viewBox="0 0 22 22" fill="none" xmlns="http://www.w3.org/2000/svg">
<path d="M13 14.0833C13.3069 14.0833 13.5734 13.9707 13.7995 13.7453C14.0256 13.52 14.1382 13.2535 14.1375 12.9458C14.1368 12.6382 14.0241 12.372 13.7995 12.1474C13.5749 11.9228 13.3084 11.8098 13 11.8083C12.6916 11.8069 12.4255 11.9199 12.2016 12.1474C11.9777 12.3749 11.8647 12.6411 11.8625 12.9458C11.8603 13.2506 11.9734 13.5171 12.2016 13.7453C12.4298 13.9736 12.6959 14.0862 13 14.0833ZM12.1875 10.6167H13.8125C13.8125 10.0931 13.8667 9.70956 13.975 9.46617C14.0833 9.22278 14.3361 8.90211 14.7333 8.50417C15.275 7.9625 15.6361 7.52483 15.8167 7.19117C15.9972 6.8575 16.0875 6.46461 16.0875 6.0125C16.0875 5.2 15.8029 4.53664 15.2338 4.02242C14.6647 3.50819 13.9201 3.25072 13 3.25C12.2597 3.25 11.6144 3.45764 11.0641 3.87292C10.5138 4.28819 10.1299 4.83889 9.9125 5.525L11.375 6.12083C11.5375 5.66944 11.7589 5.33108 12.0391 5.10575C12.3193 4.88042 12.6396 4.76739 13 4.76667C13.4333 4.76667 13.7854 4.88872 14.0563 5.13283C14.3271 5.37694 14.4625 5.70628 14.4625 6.12083C14.4625 6.37361 14.3903 6.61303 14.2458 6.83908C14.1014 7.06514 13.8486 7.34933 13.4875 7.69167C12.8917 8.21528 12.5262 8.62622 12.3912 8.9245C12.2561 9.22278 12.1882 9.78683 12.1875 10.6167ZM6.5 17.3333C5.90417 17.3333 5.39428 17.1214 4.97033 16.6974C4.54639 16.2735 4.33406 15.7632 4.33333 15.1667V2.16667C4.33333 1.57083 4.54567 1.06094 4.97033 0.637C5.395 0.213056 5.90489 0.000722222 6.5 0H19.5C20.0958 0 20.6061 0.212333 21.0308 0.637C21.4554 1.06167 21.6674 1.57156 21.6667 2.16667V15.1667C21.6667 15.7625 21.4547 16.2728 21.0308 16.6974C20.6068 17.1221 20.0966 17.3341 19.5 17.3333H6.5ZM6.5 15.1667H19.5V2.16667H6.5V15.1667ZM2.16667 21.6667C1.57083 21.6667 1.06094 21.4547 0.637 21.0308C0.213056 20.6068 0.000722222 20.0966 0 19.5V4.33333H2.16667V19.5H17.3333V21.6667H2.16667Z" fill="#3A63AF"/>
</svg>
