<svg width="160" height="160" viewBox="0 0 160 160" fill="none" xmlns="http://www.w3.org/2000/svg">
<rect width="160" height="160" rx="80" fill="url(#paint0_linear_37_117)"/>
<path d="M80 58.9163L78.1394 60.5965C78.3776 60.8429 78.6657 61.0394 78.9858 61.1737C79.3058 61.308 79.6511 61.3774 80 61.3774C80.3489 61.3774 80.6942 61.308 81.0142 61.1737C81.3343 61.0394 81.6224 60.8429 81.8607 60.5965L80 58.9163ZM48.2603 85.5238C48.4283 85.8099 48.6539 86.0605 48.9238 86.2609C49.1938 86.4613 49.5025 86.6073 49.8319 86.6904C50.1612 86.7735 50.5044 86.7919 50.8412 86.7446C51.1781 86.6973 51.5017 86.5852 51.7929 86.415C52.0841 86.2447 52.3371 86.0198 52.5369 85.7534C52.7366 85.4871 52.8791 85.1847 52.9559 84.8642C53.0326 84.5437 53.0422 84.2116 52.9839 83.8875C52.9256 83.5634 52.8007 83.2539 52.6165 82.9772L48.2603 85.5238ZM61.4512 93.6918C61.2211 93.448 60.9427 93.2514 60.6324 93.1137C60.3221 92.976 59.9863 92.9 59.6451 92.8902C59.3038 92.8805 58.964 92.9371 58.6458 93.0569C58.3277 93.1766 58.0377 93.357 57.7931 93.5872C57.5485 93.8174 57.3543 94.0929 57.222 94.3971C57.0898 94.7013 57.0222 95.0281 57.0233 95.3581C57.0244 95.6881 57.0941 96.0145 57.2283 96.318C57.3625 96.6214 57.5585 96.8956 57.8046 97.1244L61.4512 93.6918ZM48.593 71.2027C48.593 61.6696 52.8983 55.7791 58.2222 53.7609C63.536 51.7492 70.9684 53.1866 78.1394 60.5965L81.8607 57.2361C73.7526 48.8548 64.2082 46.2098 56.365 49.1764C48.5319 52.143 43.5 60.288 43.5 71.2027H48.593ZM91.9177 106.126C96.9869 102.152 103.058 96.8257 107.886 90.8761C112.663 84.9889 116.5 78.1467 116.5 71.1962H111.407C111.407 76.4862 108.419 82.2356 103.876 87.8373C99.3807 93.38 93.6357 98.4436 88.7125 102.303L91.9177 106.126ZM116.5 71.1962C116.5 60.2847 111.468 52.1397 103.632 49.1764C95.7884 46.2065 86.2474 48.8482 78.1394 57.2328L81.8607 60.5965C89.0316 53.1866 96.464 51.7459 101.778 53.7576C107.102 55.7725 111.407 61.6663 111.407 71.1962H116.5ZM68.0823 106.129C72.3944 109.516 75.3891 112 80 112V107.078C77.5452 107.078 76.0173 106.014 71.2875 102.306L68.0823 106.129ZM88.7125 102.303C83.9827 106.011 82.4548 107.078 80 107.078V112C84.6109 112 87.609 109.516 91.9211 106.129L88.7125 102.303ZM52.6199 82.9772C50.0768 78.9211 48.593 74.934 48.593 71.2027H43.5C43.5 76.1646 45.4557 81.0476 48.2603 85.5238L52.6199 82.9772ZM71.2875 102.306C67.8405 99.6193 64.5563 96.7432 61.4512 93.6918L57.8046 97.1244C61.0451 100.317 64.4791 103.323 68.0823 106.129L71.2875 102.306Z" fill="#D83A3A"/>
<defs>
<linearGradient id="paint0_linear_37_117" x1="80" y1="0" x2="80" y2="160" gradientUnits="userSpaceOnUse">
<stop stop-color="#FBD5D5"/>
<stop offset="1" stop-color="#F6A8A8"/>
</linearGradient>
</defs>
</svg>
