<svg width="26" height="22" viewBox="0 0 26 22" fill="none" xmlns="http://www.w3.org/2000/svg">
<path d="M13 3.75248L12.3373 4.33005C12.4222 4.41475 12.5248 4.48229 12.6388 4.52847C12.7528 4.57464 12.8757 4.59847 13 4.59847C13.1243 4.59847 13.2472 4.57464 13.3612 4.52847C13.4752 4.48229 13.5778 4.41475 13.6627 4.33005L13 3.75248ZM1.69544 12.8988C1.75528 12.9971 1.83564 13.0833 1.93178 13.1522C2.02792 13.2211 2.13789 13.2713 2.25518 13.2998C2.37248 13.3284 2.49472 13.3347 2.61469 13.3185C2.73465 13.3022 2.84991 13.2637 2.95363 13.2051C3.05736 13.1466 3.14746 13.0693 3.21861 12.9777C3.28975 12.8862 3.34049 12.7822 3.36784 12.6721C3.39519 12.5619 3.39858 12.4477 3.37782 12.3363C3.35706 12.2249 3.31257 12.1185 3.24698 12.0234L1.69544 12.8988ZM6.39358 15.7065C6.31163 15.6227 6.21245 15.5552 6.10194 15.5078C5.99143 15.4605 5.87185 15.4344 5.7503 15.431C5.62875 15.4277 5.50771 15.4471 5.3944 15.4883C5.28108 15.5295 5.1778 15.5915 5.09068 15.6706C5.00357 15.7497 4.9344 15.8444 4.8873 15.949C4.8402 16.0536 4.81613 16.1659 4.81651 16.2794C4.8169 16.3928 4.84173 16.505 4.88953 16.6093C4.93734 16.7136 5.00714 16.8079 5.09479 16.8865L6.39358 15.7065ZM1.81395 7.97594C1.81395 4.69892 3.34735 2.67405 5.24354 1.98029C7.13609 1.28879 9.78326 1.78288 12.3373 4.33005L13.6627 3.17491C10.7749 0.293842 7.37554 -0.615376 4.58205 0.404392C1.79219 1.42416 0 4.22401 0 7.97594H1.81395ZM17.2447 19.9808C19.0501 18.6147 21.2124 16.7838 22.932 14.7387C24.6335 12.7149 26 10.3629 26 7.97368H24.186C24.186 9.79212 23.1219 11.7685 21.5038 13.6941C19.9027 15.5994 17.8566 17.34 16.1031 18.6666L17.2447 19.9808ZM26 7.97368C26 4.22288 24.2078 1.42303 21.4167 0.404392C18.6233 -0.616504 15.2251 0.291585 12.3373 3.17378L13.6627 4.33005C16.2167 1.78288 18.8639 1.28766 20.7565 1.97917C22.6527 2.67179 24.186 4.69779 24.186 7.97368H26ZM8.75535 19.9819C10.2912 21.1461 11.3578 22 13 22V20.3079C12.1257 20.3079 11.5815 19.9424 9.89693 18.6677L8.75535 19.9819ZM16.1031 18.6666C14.4185 19.9413 13.8743 20.3079 13 20.3079V22C14.6422 22 15.71 21.1461 17.2459 19.9819L16.1031 18.6666ZM3.24819 12.0234C2.34242 10.6291 1.81395 9.25855 1.81395 7.97594H0C0 9.68157 0.696558 11.3601 1.69544 12.8988L3.24819 12.0234ZM9.89693 18.6677C8.66923 17.7441 7.49951 16.7555 6.39358 15.7065L5.09479 16.8865C6.24893 17.9839 7.472 19.0174 8.75535 19.9819L9.89693 18.6677Z" fill="#3A63AF"/>
</svg>
