<svg width="26" height="26" viewBox="0 0 26 26" fill="none" xmlns="http://www.w3.org/2000/svg">
<path d="M16.25 23.8333H6.94092C6.49223 23.8331 6.0512 23.7171 5.66042 23.4966C5.26964 23.2761 4.94233 22.9586 4.71013 22.5747C4.47792 22.1908 4.34866 21.7534 4.33485 21.305C4.32103 20.8565 4.42312 20.412 4.63125 20.0145L10.2917 9.20829V2.16663H15.7083V9.20829L17.875 13.3445M8.66667 2.16663H17.3333M8.66667 12.4583H17.3333" stroke="#3A63AF" stroke-width="1.5" stroke-linecap="round" stroke-linejoin="round"/>
<path d="M20.0417 16.25L19.7622 17.0051C19.396 17.9952 19.2129 18.4903 18.8522 18.8511C18.4903 19.2129 17.9953 19.396 17.0051 19.7622L16.25 20.0417L17.0051 20.3212C17.9953 20.6873 18.4893 20.8704 18.8511 21.2312C19.2129 21.593 19.396 22.0881 19.7622 23.0782L20.0417 23.8333L20.3212 23.0782C20.6873 22.0881 20.8704 21.593 21.2312 21.2323C21.593 20.8704 22.087 20.6873 23.0783 20.3212L23.8333 20.0417L23.0783 19.7622C22.0881 19.396 21.593 19.2129 21.2323 18.8522C20.8704 18.4903 20.6873 17.9952 20.3212 17.0051L20.0417 16.25Z" stroke="#3A63AF" stroke-width="1.5" stroke-linejoin="round"/>
</svg>
