<svg width="26" height="26" viewBox="0 0 26 26" fill="none" xmlns="http://www.w3.org/2000/svg">
<path d="M4.30838 2.88567C4.56221 2.88568 4.81158 2.81902 5.03141 2.69239C5.25125 2.56575 5.4338 2.38362 5.56072 2.16428C5.68765 1.94494 5.75447 1.69613 5.75447 1.44286C5.75448 1.18959 5.68766 0.940776 5.56075 0.721434C5.43383 0.502092 5.25128 0.319949 5.03145 0.19331C4.81163 0.066672 4.56226 1.60861e-06 4.30842 0C4.05458 -1.60855e-06 3.80522 0.0666659 3.58539 0.193301C3.36556 0.319937 3.18301 0.502078 3.05609 0.721418H2.86232C2.28704 0.721418 1.73532 0.949438 1.32854 1.35531C0.921754 1.76119 0.693226 2.31168 0.693226 2.88567V9.37844C0.294113 9.37844 -0.0334193 9.70236 0.00273217 10.0991C0.148758 11.6966 0.776548 13.2124 1.80334 14.4467C2.83012 15.681 4.2077 16.5758 5.75444 17.0132V18.7569C5.75444 19.6991 6.35817 20.5013 7.2005 20.7985C7.20817 22.1856 7.7678 23.513 8.75628 24.4884C9.74477 25.4639 11.0811 26.0076 12.4714 25.9999C13.8616 25.9923 15.1919 25.4339 16.1695 24.4476C17.1472 23.4613 17.6921 22.1279 17.6844 20.7408V17.8551C17.6844 17.1376 17.9701 16.4495 18.4786 15.9422C18.987 15.4348 19.6767 15.1498 20.3958 15.1498C21.1149 15.1498 21.8045 15.4348 22.313 15.9422C22.8215 16.4495 23.1072 17.1376 23.1072 17.8551V19.6009C22.6245 19.7711 22.2178 20.1061 21.9587 20.5466C21.6997 20.9871 21.6051 21.5048 21.6916 22.0082C21.7781 22.5115 22.0402 22.9682 22.4316 23.2974C22.8229 23.6266 23.3183 23.8072 23.8302 23.8072C24.3421 23.8072 24.8374 23.6266 25.2288 23.2974C25.6201 22.9682 25.8822 22.5115 25.9688 22.0082C26.0553 21.5048 25.9607 20.9871 25.7016 20.5466C25.4426 20.1061 25.0358 19.7711 24.5532 19.6009V17.8551C24.5532 16.7549 24.1152 15.6998 23.3355 14.9219C22.5559 14.144 21.4984 13.7069 20.3958 13.7069C19.2932 13.7069 18.2357 14.144 17.456 14.9219C16.6764 15.6998 16.2384 16.7549 16.2384 17.8551V20.7408C16.246 21.7453 15.8535 22.7117 15.147 23.4274C14.4406 24.1431 13.4781 24.5494 12.4714 24.5571C11.4646 24.5647 10.4961 24.173 9.7788 23.4682C9.06151 22.7633 8.65423 21.803 8.64655 20.7985C9.06964 20.6492 9.43592 20.3727 9.69491 20.0071C9.9539 19.6414 10.0929 19.2046 10.0926 18.7569V17.0132C11.6394 16.5758 13.0169 15.681 14.0437 14.4467C15.0705 13.2124 15.6983 11.6966 15.8443 10.0991C15.8805 9.70236 15.5529 9.37844 15.1538 9.37844V2.88567C15.1538 2.31168 14.9253 1.76119 14.5185 1.35531C14.1117 0.949438 13.56 0.721418 12.9847 0.721418H12.791C12.6318 0.446372 12.3861 0.231412 12.092 0.109878C11.7979 -0.0116568 11.4719 -0.0329752 11.1644 0.0492283C10.8569 0.131432 10.5852 0.312564 10.3915 0.564534C10.1977 0.816504 10.0926 1.12523 10.0926 1.44284C10.0926 1.76044 10.1977 2.06917 10.3915 2.32114C10.5852 2.57311 10.8569 2.75424 11.1644 2.83645C11.4719 2.91865 11.7979 2.89733 12.092 2.7758C12.3861 2.65426 12.6318 2.4393 12.791 2.16426H12.9847C13.1765 2.16426 13.3604 2.24026 13.496 2.37555C13.6316 2.51085 13.7078 2.69434 13.7078 2.88567V9.37844H13.8596C13.4598 9.37844 13.1416 9.70308 13.086 10.0977C12.9112 11.3398 12.2926 12.477 11.3439 13.2999C10.3953 14.1229 9.18057 14.5761 7.92353 14.5761C6.66648 14.5761 5.45177 14.1229 4.50313 13.2999C3.5545 12.477 2.93583 11.3398 2.76109 10.0977C2.70542 9.70308 2.38728 9.37844 1.98745 9.37844H2.13929V2.88567C2.13929 2.69434 2.21546 2.51085 2.35106 2.37555C2.48665 2.24026 2.67056 2.16426 2.86232 2.16426H3.05609C3.183 2.38359 3.36554 2.56573 3.58537 2.69236C3.80519 2.819 4.05455 2.88567 4.30838 2.88567Z" fill="#3A63AF"/>
</svg>
